# xmcd
#
# Track frame offsets:
#	150
#	15965
#	30898
#	44161
#	53777
#	73020
#	90909
#	106923
#	121818
#	140676
#	153116
#	170950
#	189660
#	201346
#	210846
#	227125
#
# Disc length: 3256 seconds
#
# Revision: 1
# Processed by: cddbd v1.5.1PL2 Copyright (c) Steve Scherf et al.
# Submitted via: EasyCDDAExtractor 9.1.3.1
#
DISCID=d10cb610
DTITLE=Kris Kristofferson - Live From Austin, TX
DYEAR=2006
DGENRE=Country
TTITLE0=Star Crossed
TTITLE1=You Show Me Yours-Stranger
TTITLE2=Here Comes That Rainbow Again
TTITLE3=Help Me Make It Through The Night
TTITLE4=Me And Bobby McGee
TTITLE5=Magdalene
TTITLE6=Nobody Loves Anybody Anymore
TTITLE7=Darby's Castle
TTITLE8=Casey's Last Ride
TTITLE9=The Pilgrim
TTITLE10=For The Good Times
TTITLE11=Loving Her Was Easier...
TTITLE12=Sunday Mornin' Comin' Down
TTITLE13=Silver Tongued Devil
TTITLE14=Smile At Me Again
TTITLE15=Why Me
EXTD=
EXTT0=
EXTT1=
EXTT2=
EXTT3=
EXTT4=
EXTT5=
EXTT6=
EXTT7=
EXTT8=
EXTT9=
EXTT10=
EXTT11=
EXTT12=
EXTT13=
EXTT14=
EXTT15=
PLAYORDER=
